<?xml version="1.0" encoding="utf-8"?>
<!-- Generator: Adobe Illustrator 26.0.2, SVG Export Plug-In . SVG Version: 6.00 Build 0)  -->
<svg version="1.1" id="Lager_1" xmlns="http://www.w3.org/2000/svg" xmlns:xlink="http://www.w3.org/1999/xlink" x="0px" y="0px"
	 viewBox="0 0 252 81.5" style="enable-background:new 0 0 252 81.5;" xml:space="preserve">
<style type="text/css">
	.st0{fill:none;}
	.st1{font-family:'Rockwell-Bold';}
	.st2{font-size:36px;}
	.st3{font-family:'Rockwell-BoldItalic';}
	.st4{font-size:34.0263px;}
</style>
<rect x="155.2" y="50.1" class="st0" width="2.5" height="0"/>
<rect x="1" y="9" class="st0" width="252" height="66"/>
<text transform="matrix(1.2343 0 0 1 49.4858 33.4414)"><tspan x="0" y="0" class="st1 st2">Dennis</tspan><tspan x="-35.1" y="40.8" class="st3 st4">PHP - MALL</tspan></text>
<g>
	<g>
		<path d="M19.6,42.1c28.3,0,56.6,0,84.8,0c28.2,0,56.4,0,84.6,0c15.9,0,31.8,0,47.7,0c1.9,0,1.9-3,0-3c-28.3,0-56.6,0-84.8,0
			c-28.2,0-56.4,0-84.6,0c-15.9,0-31.8,0-47.7,0C17.7,39.1,17.7,42.1,19.6,42.1L19.6,42.1z"/>
	</g>
</g>
</svg>
